<?xml version="1.0" standalone="yes"?>
<svg xmlns="http://www.w3.org/2000/svg" width="512" height="512">
<path style="fill:#ebebea; stroke:none;" d="M0 0L0 512L512 512L512 0L0 0z"/>
<path style="fill:#131313; stroke:none;" d="M245 86.4244C205.575 91.6034 170.893 105.17 141 132.17C126.61 145.168 114.431 161.688 105.753 179C81.3728 227.636 81.351 288.721 107.309 337C121.653 363.677 142.677 386.125 168 402.656C182.509 412.127 199.176 419.338 216 423.525C236.384 428.597 258.218 429.517 279 426.718C367.857 414.748 430.928 330.865 424.91 243C419.593 165.356 355.468 97.1201 278 87.8449C267.189 86.5504 255.879 84.9953 245 86.4244z"/>
<path style="fill:#ebebea; stroke:none;" d="M245 134.424C225.659 136.995 208.543 142.177 192 152.864C178.133 161.823 166.366 173.625 156.746 187C123.077 233.81 129.686 303.332 170.17 343.83C198.113 371.784 237.188 383.942 276 378.711C291.938 376.563 307.463 369.868 321 361.424C359.162 337.619 383.152 292.235 378.83 247C372.667 182.5 311.706 125.559 245 134.424z"/>
<path style="fill:#131313; stroke:none;" d="M169 214L169 313C176.807 313 186.461 314.528 194 312.362C205.05 309.186 215.521 300.904 226 296.08C232.72 292.987 244.25 289.608 248 283L198 282L198 263C198.001 260.203 197.542 256.73 199.028 254.213C202.432 248.445 214.204 245.584 220 242.755C240.329 232.833 261.573 222.294 283 215L283 213C274.234 209.351 265.725 205.046 257 201.281C253.37 199.714 249.009 196.882 245 196.719C240.526 196.538 235.96 199.853 232 201.576C222.444 205.733 212.861 210.369 203 213.757C198.139 215.427 193.95 214.256 189 214.039C182.356 213.748 175.65 214 169 214M322 208C320.402 213.397 315.637 214.8 311 217.309C301.7 222.339 292.351 227.285 283 232.219C277.376 235.187 270.565 236.848 270 244L317 244L317 262C316.999 264.779 317.472 268.283 315.972 270.775C314.484 273.25 311.47 274.158 309 275.308C303.646 277.799 298.396 280.456 293 282.861C274.761 290.989 255.037 298.582 238 309L238 311C248.801 314.193 262.752 312 274 312L346 312L346 208L322 208z"/>
</svg>
